<?xml version="1.0" encoding="UTF-8"?>
<svg version="1.1" xmlns="http://www.w3.org/2000/svg" width="337" height="113">
<path d="M0 0 C1.97909398 -0.02686553 3.95828971 -0.04633375 5.9375 -0.0625 C7.03964844 -0.07410156 8.14179688 -0.08570313 9.27734375 -0.09765625 C12 0 12 0 13 1 C13.08685603 2.56172745 13.10702219 4.12729344 13.09765625 5.69140625 C13.09443359 6.63564453 13.09121094 7.57988281 13.08789062 8.55273438 C13.07951172 9.54595703 13.07113281 10.53917969 13.0625 11.5625 C13.05798828 12.55958984 13.05347656 13.55667969 13.04882812 14.58398438 C13.03700007 17.05604849 13.02051849 19.52799518 13 22 C15.23701109 20.20028215 15.23701109 20.20028215 15.16015625 17.71484375 C15.12792969 16.79832031 15.09570312 15.88179687 15.0625 14.9375 C14.96180759 9.8491767 15.33861974 5.04302445 16 0 C17.97909398 -0.02686553 19.95828971 -0.04633375 21.9375 -0.0625 C23.03964844 -0.07410156 24.14179688 -0.08570313 25.27734375 -0.09765625 C28 0 28 0 29 1 C29.13841839 3.72980165 29.21318635 6.43243052 29.23828125 9.1640625 C29.246353 9.98949554 29.25442474 10.81492859 29.26274109 11.66537476 C29.27660317 13.41898487 29.28731578 15.1726222 29.29516602 16.92626953 C29.31229643 19.59330618 29.3561515 22.25907654 29.40039062 24.92578125 C29.41052463 26.63019922 29.41903852 28.33462774 29.42578125 30.0390625 C29.44328934 30.83100006 29.46079742 31.62293762 29.47883606 32.43887329 C29.45701873 38.08441755 28.21754558 41.34186895 25 46 C19.33229303 50.1737089 11.74794925 49.06501231 5.13671875 48.51953125 C2.31309893 48.05185823 0.43053851 47.45832311 -2 46 C-1.71905418 44.1858073 -1.42493567 42.37364999 -1.125 40.5625 C-0.88136719 39.04849609 -0.88136719 39.04849609 -0.6328125 37.50390625 C-0.42398438 36.67761719 -0.21515625 35.85132813 0 35 C0.99 34.505 0.99 34.505 2 34 C2.7425 34.309375 3.485 34.61875 4.25 34.9375 C7.34368621 36.13278785 9.71243908 36.15290981 13 36 C13.33 35.34 13.66 34.68 14 34 C13.40832031 34.04640625 12.81664062 34.0928125 12.20703125 34.140625 C8.0617208 34.32997034 5.65956934 34.38474878 2 32.25 C-1.52669079 28.28247286 -1.11420306 24.42030559 -1.0625 19.25 C-1.05347656 18.07953125 -1.04445312 16.9090625 -1.03515625 15.703125 C-1.02355469 14.81109375 -1.01195312 13.9190625 -1 13 C-1.66 13 -2.32 13 -3 13 C-2.51424554 8.2234145 -1.91138899 4.43659802 0 0 Z " fill="#DE9754" transform="translate(204,48)"/>
<path d="M0 0 C1.91796875 1.09765625 1.91796875 1.09765625 4.66796875 3.09765625 C3.45420841 8.41952852 1.94173167 13.13671897 -0.33203125 18.09765625 C-0.84765625 17.78828125 -1.36328125 17.47890625 -1.89453125 17.16015625 C-5.54519958 15.56883929 -9.3587062 15.09765625 -13.33203125 15.09765625 C-14.27144028 18.29164695 -14.49647482 21.2104193 -14.51953125 24.53515625 C-14.54080078 25.92541016 -14.54080078 25.92541016 -14.5625 27.34375 C-14.31710687 30.27598998 -13.55404702 32.43627014 -12.33203125 35.09765625 C-7.32353998 34.89905646 -7.32353998 34.89905646 -3.51953125 32.03515625 C-3.12765625 31.39578125 -2.73578125 30.75640625 -2.33203125 30.09765625 C-1.67203125 30.09765625 -1.01203125 30.09765625 -0.33203125 30.09765625 C4.26022388 40.47123256 4.26022388 40.47123256 3.66796875 46.09765625 C-2.77190986 49.98588485 -7.83380956 51.00897858 -15.33203125 50.09765625 C-21.09411619 48.32470704 -24.99887939 44.00288747 -28.33203125 39.09765625 C-31.5317516 31.52604076 -31.79953892 21.51567389 -29.26953125 13.66015625 C-26.70275942 8.1149605 -22.50007229 3.71108214 -17.64453125 0.09765625 C-11.9662411 -1.61654455 -5.62615459 -2.17695429 0 0 Z " fill="#E89E57" transform="translate(51.33203125,34.90234375)"/>
<path d="M0 0 C0.97453125 0.01353516 1.9490625 0.02707031 2.953125 0.04101562 C5.34432863 0.07618038 7.73436975 0.1253933 10.125 0.1875 C11.18809567 5.36067421 11.24193938 10.31119336 11.1875 15.5625 C11.18298828 16.39394531 11.17847656 17.22539063 11.17382812 18.08203125 C11.16213164 20.11721897 11.14419935 22.15236923 11.125 24.1875 C11.785 24.1875 12.445 24.1875 13.125 24.1875 C11.97205882 34.06985294 11.97205882 34.06985294 11.125 36.1875 C8.48059361 37.0689688 6.84439248 37.34924818 4.125 37.375 C3.1040625 37.39626953 3.1040625 37.39626953 2.0625 37.41796875 C0.125 37.1875 0.125 37.1875 -2.875 35.1875 C-3.205 35.5175 -3.535 35.8475 -3.875 36.1875 C-8.27772243 36.74238857 -11.81291313 36.76472113 -15.75 34.625 C-20.95898259 28.64999055 -21.42789881 23.16755078 -21.22265625 15.421875 C-20.73694488 10.90312204 -19.77395943 6.76856753 -16.875 3.1875 C-11.52099053 -0.56538955 -6.26794161 -0.16561634 0 0 Z M-6.875 13.1875 C-8.27435013 15.98620027 -8.12765405 18.09248792 -7.875 21.1875 C-6.62382038 23.10755135 -6.62382038 23.10755135 -4.875 24.1875 C-4.215 24.1875 -3.555 24.1875 -2.875 24.1875 C-2.875 20.5575 -2.875 16.9275 -2.875 13.1875 C-4.195 13.1875 -5.515 13.1875 -6.875 13.1875 Z " fill="#E09854" transform="translate(127.875,47.8125)"/>
<path d="M0 0 C7.92 0 15.84 0 24 0 C24.39832031 1.70027344 24.79664063 3.40054688 25.20703125 5.15234375 C25.7419726 7.41411334 26.27714089 9.67582926 26.8125 11.9375 C27.07353516 13.05447266 27.33457031 14.17144531 27.60351562 15.32226562 C28.9461491 20.97458681 30.39640009 26.5046255 32.3112793 31.99047852 C33.32962523 34.9617672 34.162814 37.97325061 35 41 C35.086985 37.22931168 35.14038579 33.45888068 35.1875 29.6875 C35.21263672 28.61564453 35.23777344 27.54378906 35.26367188 26.43945312 C35.27817383 24.89741211 35.27817383 24.89741211 35.29296875 23.32421875 C35.31653442 21.9024231 35.31653442 21.9024231 35.34057617 20.4519043 C34.93475073 17.53025204 34.05638451 16.97857536 32 15 C32.44887802 12.24346717 32.98869889 9.94916946 33.8125 7.3125 C34.534375 4.899375 35.25625 2.48625 36 0 C41.28 0 46.56 0 52 0 C52.16824079 6.13792744 52.32873188 12.27599148 52.48217773 18.41430664 C52.53540756 20.50062453 52.59072079 22.58689038 52.64819336 24.6730957 C52.73063762 27.67908511 52.80548294 30.68518459 52.87890625 33.69140625 C52.90594131 34.61772354 52.93297638 35.54404083 52.96083069 36.49842834 C53.07434999 41.47151806 52.87097161 46.099685 52 51 C48.18763538 51.16986007 44.37509074 51.33529964 40.5625 51.5 C38.95858398 51.57154297 38.95858398 51.57154297 37.32226562 51.64453125 C34.21521777 51.77755471 31.10794209 51.89018232 28 52 C27.1013623 52.04511719 26.20272461 52.09023437 25.27685547 52.13671875 C22.83984375 52.21875 22.83984375 52.21875 19 52 C16.8480563 48.77208445 16.79913557 47.71599191 17 44 C13.535 44.495 13.535 44.495 10 45 C9.34 47.31 8.68 49.62 8 52 C5.72923158 52.02699725 3.45837179 52.04639453 1.1875 52.0625 C-0.70935547 52.07990234 -0.70935547 52.07990234 -2.64453125 52.09765625 C-6 52 -6 52 -9 51 C-6.68389738 39.55500353 -4.15979295 28.24415683 -1 17 C-1.66 17 -2.32 17 -3 17 C-2.88366642 15.47847921 -2.7564113 13.95779277 -2.625 12.4375 C-2.55539062 11.59058594 -2.48578125 10.74367188 -2.4140625 9.87109375 C-2 7 -2 7 0 0 Z M3 3 C0.86263944 9.26741033 0.86263944 9.26741033 1 13 C1.66 13 2.32 13 3 13 C2.23516491 16.45968725 1.4620054 19.91746588 0.6875 23.375 C0.47416016 24.34050781 0.26082031 25.30601563 0.04101562 26.30078125 C-1.22259729 31.92102974 -2.6702788 37.37794124 -4.53588867 42.83056641 C-5.2334363 45.31326529 -5.2334363 45.31326529 -4 49 C-1.03 49 1.94 49 5 49 C5.99 46.36 6.98 43.72 8 41 C13.445 40.505 13.445 40.505 19 40 C19.45572917 42.05078125 19.91145833 44.1015625 20.3671875 46.15234375 C20.82961523 48.20700294 20.82961523 48.20700294 23 49 C25.32805426 49.1050566 27.63656192 49.06233483 29.96630859 49.02905273 C30.97298584 49.01467163 30.97298584 49.01467163 32 49 C30.51626215 41.20807235 28.77219369 33.4808371 26.96826172 25.7578125 C26.49774229 23.74031939 26.0319829 21.72176374 25.56640625 19.703125 C25.26330882 18.4009746 24.95993323 17.09888891 24.65625 15.796875 C24.38619141 14.63510742 24.11613281 13.47333984 23.83789062 12.27636719 C23.0367251 9.14360455 22.02254916 6.06764749 21 3 C15.06 3 9.12 3 3 3 Z M39 3 C37.07619358 6.96077793 37.14139864 8.78121126 38 13 C38.13633513 15.70913365 38.23129947 18.39892885 38.28125 21.109375 C38.29965942 21.87679016 38.31806885 22.64420532 38.33703613 23.43487549 C38.41546873 26.70498208 38.48378099 29.97527711 38.55224609 33.24560547 C38.60380821 35.63780401 38.66107964 38.0298172 38.71875 40.421875 C38.73232544 41.16661072 38.74590088 41.91134644 38.7598877 42.6786499 C38.53994441 46.13108276 38.53994441 46.13108276 40 49 C41.87321948 49.16053815 41.87321948 49.16053815 44 49.125 C44.721875 49.12757812 45.44375 49.13015625 46.1875 49.1328125 C48.02089415 49.19695276 48.02089415 49.19695276 49 48 C49.09795311 46.62390118 49.12798088 45.24286118 49.12939453 43.86328125 C49.13254669 42.98567139 49.13569885 42.10806152 49.13894653 41.20385742 C49.1369223 40.24970947 49.13489807 39.29556152 49.1328125 38.3125 C49.13376923 37.33966064 49.13472595 36.36682129 49.13571167 35.36450195 C49.13639358 33.303222 49.13453853 31.24193992 49.13037109 29.18066406 C49.125023 26.01362312 49.13031572 22.846724 49.13671875 19.6796875 C49.13605797 17.68229135 49.13477681 15.68489529 49.1328125 13.6875 C49.13483673 12.73335205 49.13686096 11.7792041 49.13894653 10.79614258 C49.13579437 9.91853271 49.13264221 9.04092285 49.12939453 8.13671875 C49.12859894 7.36030029 49.12780334 6.58388184 49.12698364 5.78393555 C49.19403542 3.97566338 49.19403542 3.97566338 48 3 C46.48071962 2.92820036 44.95832518 2.91607993 43.4375 2.9375 C42.19806641 2.95103516 42.19806641 2.95103516 40.93359375 2.96484375 C39.97646484 2.98224609 39.97646484 2.98224609 39 3 Z M35 45 C36 48 36 48 36 48 Z " fill="#735D49" transform="translate(266,34)"/>
<path d="M0 0 C3.60132373 1.70627233 5.57728832 4.40820365 7.875 7.625 C9.47650039 12.42950117 9.2410831 16.98189984 9 22 C8.34 22.33 7.68 22.66 7 23 C7.33 23.33 7.66 23.66 8 24 C7.9140625 25.9609375 7.9140625 25.9609375 7.625 28.375 C7.53476563 29.16648437 7.44453125 29.95796875 7.3515625 30.7734375 C7 33 7 33 6 36 C-0.32315667 37.87003995 -5.42591917 38.46192275 -11.73046875 36.2578125 C-16.55406295 33.58449523 -19.29082758 29.12751726 -21 24 C-21.66810885 16.60699218 -21.65280017 10.06760147 -17 4 C-12.08774524 -0.79244367 -6.53440468 -1.1182389 0 0 Z M-7 10 C-7.33 11.32 -7.66 12.64 -8 14 C-6.68 14 -5.36 14 -4 14 C-4 12.68 -4 11.36 -4 10 C-4.99 10 -5.98 10 -7 10 Z M-7 22 C-7 22.66 -7 23.32 -7 24 C-3.64672361 26.23551759 -3.09256343 26.17283528 0.6875 25.625 C1.89986328 25.45871094 1.89986328 25.45871094 3.13671875 25.2890625 C3.75160156 25.19367188 4.36648437 25.09828125 5 25 C5 24.01 5 23.02 5 22 C1.04 22 -2.92 22 -7 22 Z " fill="#DF9957" transform="translate(96,48)"/>
<path d="M0 0 C1.17949219 0.01804688 2.35898438 0.03609375 3.57421875 0.0546875 C4.92966797 0.08949219 4.92966797 0.08949219 6.3125 0.125 C7.71193663 2.92387327 6.86003576 4.24638828 5.9375 7.1875 C5.66164062 8.08597656 5.38578125 8.98445313 5.1015625 9.91015625 C4.3125 12.125 4.3125 12.125 3.3125 13.125 C4.3025 13.455 5.2925 13.785 6.3125 14.125 C6.17019192 15.54202513 6.02349254 16.9586096 5.875 18.375 C5.79378906 19.16390625 5.71257812 19.9528125 5.62890625 20.765625 C5.33298007 22.97228444 5.01823121 25.01248009 4.3125 27.125 C3.6525 27.455 2.9925 27.785 2.3125 28.125 C2.28744385 28.7862085 2.2623877 29.44741699 2.23657227 30.12866211 C2.12096898 33.10682305 1.99808246 36.0846392 1.875 39.0625 C1.83568359 40.10341797 1.79636719 41.14433594 1.75585938 42.21679688 C1.71396484 43.20615234 1.67207031 44.19550781 1.62890625 45.21484375 C1.59224854 46.13128662 1.55559082 47.04772949 1.51782227 47.99194336 C1.3125 50.125 1.3125 50.125 0.3125 51.125 C-1.51865883 51.22351171 -3.35369933 51.25472629 -5.1875 51.25 C-6.1878125 51.25257812 -7.188125 51.25515625 -8.21875 51.2578125 C-10.6875 51.125 -10.6875 51.125 -11.6875 50.125 C-11.77463831 48.41727642 -11.79450007 46.70601351 -11.78515625 44.99609375 C-11.78032227 43.44438477 -11.78032227 43.44438477 -11.77539062 41.86132812 C-11.76701172 40.77271484 -11.75863281 39.68410156 -11.75 38.5625 C-11.74548828 37.47001953 -11.74097656 36.37753906 -11.73632812 35.25195312 C-11.72449826 32.54291505 -11.70801543 29.83398401 -11.6875 27.125 C-13.0075 27.125 -14.3275 27.125 -15.6875 27.125 C-14.60480845 21.07047491 -13.25601937 15.08668523 -11.75 9.125 C-11.43160156 7.84625 -11.11320313 6.5675 -10.78515625 5.25 C-8.77761439 -0.46542165 -5.43024257 -0.10752956 0 0 Z " fill="#EDA158" transform="translate(195.6875,33.875)"/>
<path d="M0 0 C4.29 0 8.58 0 13 0 C13 12.54 13 25.08 13 38 C13.66 38 14.32 38 15 38 C14.85831863 39.43791516 14.71148957 40.8753237 14.5625 42.3125 C14.48128906 43.11300781 14.40007812 43.91351563 14.31640625 44.73828125 C14 47 14 47 13 50 C11 51 11 51 0 51 C0 38.46 0 25.92 0 13 C-0.99 13 -1.98 13 -3 13 C-2.69240822 11.02006459 -2.3787932 9.04106401 -2.0625 7.0625 C-1.88847656 5.96035156 -1.71445312 4.85820313 -1.53515625 3.72265625 C-1 1 -1 1 0 0 Z " fill="#FBA85B" transform="translate(59,34)"/>
<path d="M0 0 C7 0 14 0 21 0 C22.45047396 2.90094791 21.45356803 4.55972596 20.5625 7.625 C20.13130859 9.12933594 20.13130859 9.12933594 19.69140625 10.6640625 C19.46324219 11.43492188 19.23507813 12.20578125 19 13 C17.68 13.33 16.36 13.66 15 14 C14.67 21.26 14.34 28.52 14 36 C11.51245214 37.24377393 9.77344699 37.13306235 7 37.125 C6.113125 37.12757812 5.22625 37.13015625 4.3125 37.1328125 C2 37 2 37 0 36 C0 28.41 0 20.82 0 13 C-0.66 13 -1.32 13 -2 13 C-1.85851011 11.3954444 -1.71164314 9.79136233 -1.5625 8.1875 C-1.48128906 7.29417969 -1.40007812 6.40085937 -1.31640625 5.48046875 C-1 3 -1 3 0 0 Z " fill="#D79353" transform="translate(143,48)"/>
<path d="M0 0 C4.29 0 8.58 0 13 0 C13.06058594 1.64871094 13.12117188 3.29742187 13.18359375 4.99609375 C13.26797937 7.143239 13.35262835 9.29037391 13.4375 11.4375 C13.47681641 12.52611328 13.51613281 13.61472656 13.55664062 14.73632812 C13.59853516 15.77080078 13.64042969 16.80527344 13.68359375 17.87109375 C13.72025146 18.82943115 13.75690918 19.78776855 13.79467773 20.77514648 C13.75834424 22.97138925 13.75834424 22.97138925 15 24 C14.96212481 25.8150957 14.84507974 27.62886085 14.6875 29.4375 C14.60886719 30.42621094 14.53023437 31.41492188 14.44921875 32.43359375 C14 35 14 35 12 37 C9.43359375 37.23046875 9.43359375 37.23046875 6.4375 37.1875 C5.44621094 37.18105469 4.45492187 37.17460938 3.43359375 37.16796875 C1 37 1 37 0 36 C-0.13302204 34.40186462 -0.20334655 32.79840459 -0.24609375 31.1953125 C-0.29540039 29.73158203 -0.29540039 29.73158203 -0.34570312 28.23828125 C-0.40666759 26.17067795 -0.46398766 24.10296382 -0.51757812 22.03515625 C-0.55173828 21.05675781 -0.58589844 20.07835938 -0.62109375 19.0703125 C-0.65867798 17.72090576 -0.65867798 17.72090576 -0.69702148 16.34423828 C-0.85849778 13.73182294 -0.85849778 13.73182294 -3 11 C-2.35291498 7.21071399 -1.12732677 3.68549136 0 0 Z " fill="#FAA85B" transform="translate(166,48)"/>
<path d="M0 0 C0.33 0 0.66 0 1 0 C1 3.63 1 7.26 1 11 C0.01 11.495 0.01 11.495 -1 12 C-0.67 12.33 -0.34 12.66 0 13 C-0.0859375 14.9609375 -0.0859375 14.9609375 -0.375 17.375 C-0.46523437 18.16648437 -0.55546875 18.95796875 -0.6484375 19.7734375 C-1 22 -1 22 -2 25 C-9.24262303 27.14196724 -15.17194717 27.6486674 -22 24 C-25.00075451 21.71057972 -26.66387371 19.53649301 -28 16 C-28.46584675 11.28583348 -28.35786776 6.71855263 -28 2 C-27.67 2 -27.34 2 -27 2 C-26.67 3.65 -26.34 5.3 -26 7 C-25.01 6.67 -24.02 6.34 -23 6 C-22.34 7.32 -21.68 8.64 -21 10 C-14.07 10 -7.14 10 0 10 C0 6.7 0 3.4 0 0 Z M-15 11 C-15 11.66 -15 12.32 -15 13 C-11.64672361 15.23551759 -11.09256343 15.17283528 -7.3125 14.625 C-6.10013672 14.45871094 -6.10013672 14.45871094 -4.86328125 14.2890625 C-4.24839844 14.19367188 -3.63351563 14.09828125 -3 14 C-3 13.01 -3 12.02 -3 11 C-6.96 11 -10.92 11 -15 11 Z " fill="#E59D59" transform="translate(104,59)"/>
<path d="M0 0 C5.28 0 10.56 0 16 0 C16.16824079 6.13792744 16.32873188 12.27599148 16.48217773 18.41430664 C16.53540756 20.50062453 16.59072079 22.58689038 16.64819336 24.6730957 C16.73063762 27.67908511 16.80548294 30.68518459 16.87890625 33.69140625 C16.90594131 34.61772354 16.93297638 35.54404083 16.96083069 36.49842834 C16.98092697 37.37881271 17.00102325 38.25919708 17.02172852 39.16625977 C17.04171402 39.93237076 17.06169952 40.69848175 17.08229065 41.48780823 C16.97781448 44.67728586 16.45130218 47.84088475 16 51 C11.05 51 6.1 51 1 51 C1 39.45 1 27.9 1 16 C0.01 16 -0.98 16 -2 16 C-2.05482724 14.45874525 -2.09316134 12.91690094 -2.125 11.375 C-2.15980469 10.08722656 -2.15980469 10.08722656 -2.1953125 8.7734375 C-2 6 -2 6 0 0 Z M3 3 C1.07619358 6.96077793 1.14139864 8.78121126 2 13 C2.13633513 15.70913365 2.23129947 18.39892885 2.28125 21.109375 C2.29965942 21.87679016 2.31806885 22.64420532 2.33703613 23.43487549 C2.41546873 26.70498208 2.48378099 29.97527711 2.55224609 33.24560547 C2.60380821 35.63780401 2.66107964 38.0298172 2.71875 40.421875 C2.73232544 41.16661072 2.74590088 41.91134644 2.7598877 42.6786499 C2.53994441 46.13108276 2.53994441 46.13108276 4 49 C5.87321948 49.16053815 5.87321948 49.16053815 8 49.125 C8.721875 49.12757812 9.44375 49.13015625 10.1875 49.1328125 C12.02089415 49.19695276 12.02089415 49.19695276 13 48 C13.09795311 46.62390118 13.12798088 45.24286118 13.12939453 43.86328125 C13.13254669 42.98567139 13.13569885 42.10806152 13.13894653 41.20385742 C13.1369223 40.24970947 13.13489807 39.29556152 13.1328125 38.3125 C13.13376923 37.33966064 13.13472595 36.36682129 13.13571167 35.36450195 C13.13639358 33.303222 13.13453853 31.24193992 13.13037109 29.18066406 C13.125023 26.01362312 13.13031572 22.846724 13.13671875 19.6796875 C13.13605797 17.68229135 13.13477681 15.68489529 13.1328125 13.6875 C13.13483673 12.73335205 13.13686096 11.7792041 13.13894653 10.79614258 C13.13579437 9.91853271 13.13264221 9.04092285 13.12939453 8.13671875 C13.12859894 7.36030029 13.12780334 6.58388184 13.12698364 5.78393555 C13.19403542 3.97566338 13.19403542 3.97566338 12 3 C10.48071962 2.92820036 8.95832518 2.91607993 7.4375 2.9375 C6.19806641 2.95103516 6.19806641 2.95103516 4.93359375 2.96484375 C3.97646484 2.98224609 3.97646484 2.98224609 3 3 Z " fill="#AF8965" transform="translate(302,34)"/>
<path d="M0 0 C3.3 0 6.6 0 10 0 C10 6.93 10 13.86 10 21 C11.32 21.66 12.64 22.32 14 23 C14 23.66 14 24.32 14 25 C13.34 25 12.68 25 12 25 C12 26.65 12 28.3 12 30 C10.37675914 30.22162329 8.751279 30.42689803 7.125 30.625 C5.76761719 30.79902344 5.76761719 30.79902344 4.3828125 30.9765625 C3.20332031 30.98816406 3.20332031 30.98816406 2 31 C0 29 0 29 -0.21118164 27.04467773 C-0.19434326 26.26552002 -0.17750488 25.4863623 -0.16015625 24.68359375 C-0.14919922 23.83732422 -0.13824219 22.99105469 -0.12695312 22.11914062 C-0.10568359 21.23419922 -0.08441406 20.34925781 -0.0625 19.4375 C-0.02821211 17.68627751 0.00196152 15.93496796 0.02734375 14.18359375 C0.04531006 13.40556396 0.06327637 12.62753418 0.08178711 11.82592773 C0.20485639 9.97993724 0.20485639 9.97993724 -1 9 C-0.8229564 5.97883667 -0.38079097 3.00401768 0 0 Z " fill="#FAA658" transform="translate(205,50)"/>
<path d="M0 0 C0.66 0.33 1.32 0.66 2 1 C1.67 1.66 1.34 2.32 1 3 C1.66 3 2.32 3 3 3 C3 3.99 3 4.98 3 6 C4.65 5.67 6.3 5.34 8 5 C7.34 6.32 6.68 7.64 6 9 C6.66 9.66 7.32 10.32 8 11 C8.40047444 13.32275177 8.7397104 15.65739357 9 18 C9.66 18 10.32 18 11 18 C13.56687367 21.8503105 12.83288724 23.58569763 12 28 C10.58376784 28.05447047 9.16691809 28.09300508 7.75 28.125 C6.56664063 28.15980469 6.56664063 28.15980469 5.359375 28.1953125 C2.72999833 27.97764887 1.21063322 27.42452442 -1 26 C-4.8418463 19.82560415 -4.69254886 13.10537142 -4 6 C-3.10546875 3.1640625 -3.10546875 3.1640625 -2 1 C-1.34 0.67 -0.68 0.34 0 0 Z " fill="#EDA158" transform="translate(111,54)"/>
<path d="M0 0 C4.29 0 8.58 0 13 0 C13 12.54 13 25.08 13 38 C13.66 38 14.32 38 15 38 C14.85831863 39.43791516 14.71148957 40.8753237 14.5625 42.3125 C14.48128906 43.11300781 14.40007812 43.91351563 14.31640625 44.73828125 C14 47 14 47 13 50 C11 51 11 51 0 51 C0 38.46 0 25.92 0 13 C-0.99 13 -1.98 13 -3 13 C-2.69240822 11.02006459 -2.3787932 9.04106401 -2.0625 7.0625 C-1.88847656 5.96035156 -1.71445312 4.85820313 -1.53515625 3.72265625 C-1 1 -1 1 0 0 Z M6 1.375 C5.0925 1.44460937 4.185 1.51421875 3.25 1.5859375 C2.5075 1.72257812 1.765 1.85921875 1 2 C-0.49297212 4.98594424 -0.11755228 7.70853624 0 11 C0.33 11.66 0.66 12.32 1 13 C1.15660883 15.62380313 1.2582908 18.22524852 1.31640625 20.8515625 C1.33718735 21.62559418 1.35796844 22.39962585 1.37937927 23.19711304 C1.44483448 25.67298392 1.50374087 28.14896202 1.5625 30.625 C1.60568907 32.30209448 1.64930348 33.97917807 1.69335938 35.65625 C1.80051171 39.77072308 1.90179045 43.88530414 2 48 C4.97 48 7.94 48 11 48 C12.1760003 45.6479994 12.12084541 44.26265599 12.11352539 41.64208984 C12.11344986 40.74130707 12.11337433 39.84052429 12.11329651 38.91244507 C12.10813522 37.93844757 12.10297394 36.96445007 12.09765625 35.9609375 C12.0962413 34.96494537 12.09482635 33.96895325 12.09336853 32.94277954 C12.08775936 29.75348947 12.0752053 26.56426894 12.0625 23.375 C12.05748618 21.21614685 12.05292307 19.05729259 12.04882812 16.8984375 C12.03778695 11.5989345 12.02103988 6.29947222 12 1 C9.99401476 1 7.99779384 1.21040903 6 1.375 Z " fill="#E2A56C" transform="translate(59,34)"/>
<path d="M0 0 C0.33 0 0.66 0 1 0 C1 1.98 1 3.96 1 6 C1.99 6 2.98 6 4 6 C4 17.88 4 29.76 4 42 C-1.94 42 -7.88 42 -14 42 C-16.1519437 38.77208445 -16.20086443 37.71599191 -16 34 C-19.465 34.495 -19.465 34.495 -23 35 C-23.66 37.31 -24.32 39.62 -25 42 C-29.62 42 -34.24 42 -39 42 C-39 41.67 -39 41.34 -39 41 C-34.71 41 -30.42 41 -26 41 C-26 40.34 -26 39.68 -26 39 C-26.66 38.67 -27.32 38.34 -28 38 C-27.34 35.69 -26.68 33.38 -26 31 C-21.9472484 30.01751476 -18.16138263 29.91840426 -14 30 C-12.23537317 33.08809695 -12 34.23312136 -12 38 C-8.04 38.33 -4.08 38.66 0 39 C0 36.03 0 33.06 0 30 C0.66 30.33 1.32 30.66 2 31 C2.086985 27.22931168 2.14038579 23.45888068 2.1875 19.6875 C2.21263672 18.61564453 2.23777344 17.54378906 2.26367188 16.43945312 C2.27817383 14.89741211 2.27817383 14.89741211 2.29296875 13.32421875 C2.31653442 11.9024231 2.31653442 11.9024231 2.34057617 10.4519043 C1.93723104 7.54810846 1.10198874 6.91948178 -1 5 C-0.6875 2.3125 -0.6875 2.3125 0 0 Z M2 35 C3 38 3 38 3 38 Z " fill="#8C6B4D" transform="translate(299,44)"/>
<path d="M0 0 C7.26 0 14.52 0 22 0 C25.3708863 7.86540136 25.3708863 7.86540136 26.0625 11.0859375 C26.21807373 11.78428711 26.37364746 12.48263672 26.53393555 13.20214844 C26.68773682 13.91918945 26.84153809 14.63623047 27 15.375 C28.01371358 19.93744323 29.01977054 24.37322706 30.6875 28.75 C32.64703172 34.23022882 33.17461054 40.20459292 33 46 C32.34 46.66 31.68 47.32 31 48 C27.79369232 36.63927647 24.73554853 25.26402417 22.125 13.75 C21.91012939 12.80431152 21.69525879 11.85862305 21.47387695 10.88427734 C20 4.27648699 20 4.27648699 20 2 C13.4 2 6.8 2 0 2 C0 1.34 0 0.68 0 0 Z " fill="#725C45" transform="translate(267,35)"/>
<path d="M0 0 C0.99773437 0.02320313 1.99546875 0.04640625 3.0234375 0.0703125 C4.52777344 0.09738281 4.52777344 0.09738281 6.0625 0.125 C6.83335937 0.14820313 7.60421875 0.17140625 8.3984375 0.1953125 C9.88519367 5.73864842 8.36458977 8.92602443 6.3984375 14.1953125 C2.7684375 14.1953125 -0.8615625 14.1953125 -4.6015625 14.1953125 C-5.54146126 9.4958187 -5.55660418 6.79687694 -4.6015625 2.1953125 C-2.6015625 0.1953125 -2.6015625 0.1953125 0 0 Z " fill="#FCA85A" transform="translate(171.6015625,32.8046875)"/>
<path d="M0 0 C1.32 0.66 2.64 1.32 4 2 C4 5.3 4 8.6 4 12 C-2.93 12 -9.86 12 -17 12 C-15.875 5.25 -15.875 5.25 -15 2 C-14.34 2 -13.68 2 -13 2 C-13 3.32 -13 4.64 -13 6 C-11.02 6 -9.04 6 -7 6 C-7 4.35 -7 2.7 -7 1 C-6.21625 1.20625 -5.4325 1.4125 -4.625 1.625 C-3.75875 1.74875 -2.8925 1.8725 -2 2 C-1.34 1.34 -0.68 0.68 0 0 Z " fill="#F7A95E" transform="translate(100,57)"/>
<path d="M0 0 C4.29 0 8.58 0 13 0 C13.06058594 1.64871094 13.12117188 3.29742187 13.18359375 4.99609375 C13.26797937 7.143239 13.35262835 9.29037391 13.4375 11.4375 C13.47681641 12.52611328 13.51613281 13.61472656 13.55664062 14.73632812 C13.59853516 15.77080078 13.64042969 16.80527344 13.68359375 17.87109375 C13.72025146 18.82943115 13.75690918 19.78776855 13.79467773 20.77514648 C13.75834424 22.97138925 13.75834424 22.97138925 15 24 C14.96212481 25.8150957 14.84507974 27.62886085 14.6875 29.4375 C14.60886719 30.42621094 14.53023437 31.41492188 14.44921875 32.43359375 C14 35 14 35 12 37 C9.43359375 37.23046875 9.43359375 37.23046875 6.4375 37.1875 C5.44621094 37.18105469 4.45492187 37.17460938 3.43359375 37.16796875 C1 37 1 37 0 36 C-0.13302204 34.40186462 -0.20334655 32.79840459 -0.24609375 31.1953125 C-0.29540039 29.73158203 -0.29540039 29.73158203 -0.34570312 28.23828125 C-0.40666759 26.17067795 -0.46398766 24.10296382 -0.51757812 22.03515625 C-0.55173828 21.05675781 -0.58589844 20.07835938 -0.62109375 19.0703125 C-0.65867798 17.72090576 -0.65867798 17.72090576 -0.69702148 16.34423828 C-0.85849778 13.73182294 -0.85849778 13.73182294 -3 11 C-2.35291498 7.21071399 -1.12732677 3.68549136 0 0 Z M2 2 C-0.15409173 6.30818346 -0.18259389 8.0368594 0.0234375 12.734375 C0.075 14.02988281 0.1265625 15.32539062 0.1796875 16.66015625 C0.24455938 18.02344857 0.30966653 19.38672972 0.375 20.75 C0.43327558 22.12886502 0.49057808 23.50777153 0.546875 24.88671875 C0.68834178 28.25834372 0.83975828 31.62922366 1 35 C4.96 35 8.92 35 13 35 C13.0309375 32.3084375 13.0309375 32.3084375 13.0625 29.5625 C13.07410156 28.55316406 13.08570313 27.54382813 13.09765625 26.50390625 C13.28612676 24.05978933 13.28612676 24.05978933 12 23 C11.84313751 21.44051458 11.74923361 19.87457332 11.68359375 18.30859375 C11.62075195 16.89223633 11.62075195 16.89223633 11.55664062 15.44726562 C11.51732422 14.45404297 11.47800781 13.46082031 11.4375 12.4375 C11.39431641 11.44041016 11.35113281 10.44332031 11.30664062 9.41601562 C11.20019702 6.9441585 11.09818072 4.4721969 11 2 C8.03 2 5.06 2 2 2 Z " fill="#8B6B4C" transform="translate(166,48)"/>
<path d="M0 0 C2.28379641 1.82703713 2.87041842 3.22970951 3.3515625 6.08984375 C3.62393516 10.39763247 3.38924383 12.43903095 0.875 16.0625 C-2 18 -2 18 -5 18.625 C-9.17862962 17.75445216 -10.56887157 16.50368509 -13 13 C-13.63944984 9.87503643 -13.64244096 7.1245992 -13 4 C-9.42058029 -0.93713064 -5.73806396 -1.55405899 0 0 Z M-8.875 4.0625 C-10.66310335 7.14201133 -9.74592606 9.64333273 -9 13 C-7.88833136 14.33187793 -7.88833136 14.33187793 -5.0625 14.1875 C-1.89107141 14.33278733 -1.89107141 14.33278733 0 12 C0.33333333 8.5 0.33333333 8.5 0 5 C-1.82203581 2.77033253 -1.82203581 2.77033253 -4.4375 2.6875 C-6.98221994 2.83136368 -6.98221994 2.83136368 -8.875 4.0625 Z " fill="#94775A" transform="translate(254,69)"/>
<path d="M0 0 C1.97909398 -0.02686553 3.95828971 -0.04633375 5.9375 -0.0625 C7.03964844 -0.07410156 8.14179688 -0.08570313 9.27734375 -0.09765625 C12 0 12 0 13 1 C13.08700342 2.63472882 13.10701063 4.27314055 13.09765625 5.91015625 C13.09443359 6.89951172 13.09121094 7.88886719 13.08789062 8.90820312 C13.07951172 9.94912109 13.07113281 10.99003906 13.0625 12.0625 C13.05798828 13.10728516 13.05347656 14.15207031 13.04882812 15.22851562 C13.03699913 17.8190666 13.02051689 20.40950559 13 23 C12.34 23 11.68 23 11 23 C11 16.07 11 9.14 11 2 C7.7 2 4.4 2 1 2 C1 4.64 1 7.28 1 10 C1.66 10 2.32 10 3 10 C3 10.66 3 11.32 3 12 C2.34 12 1.68 12 1 12 C1 17.94 1 23.88 1 30 C-1.11126943 25.77746115 -1.2171997 23.85998477 -1.125 19.25 C-1.09792969 17.49429688 -1.09792969 17.49429688 -1.0703125 15.703125 C-1.04710937 14.81109375 -1.02390625 13.9190625 -1 13 C-1.66 13 -2.32 13 -3 13 C-2.51424554 8.2234145 -1.91138899 4.43659802 0 0 Z " fill="#8B6644" transform="translate(204,48)"/>
<path d="M0 0 C3.41281372 2.64803754 3.83195549 5.57273832 4.6875 9.6875 C4.93886719 10.86699219 5.19023437 12.04648437 5.44921875 13.26171875 C5.63097656 14.16535156 5.81273437 15.06898437 6 16 C0.04296875 17.7578125 0.04296875 17.7578125 -2 18 C-2.99 17.34 -3.98 16.68 -5 16 C-4.55088303 13.70650932 -4.09042056 11.41523782 -3.625 9.125 C-3.36976563 7.84882812 -3.11453125 6.57265625 -2.8515625 5.2578125 C-2 2 -2 2 0 0 Z " fill="#917152" transform="translate(279,50)"/>
<path d="M0 0 C0.33 0 0.66 0 1 0 C1 12.54 1 25.08 1 38 C1.66 38 2.32 38 3 38 C2.85831863 39.43791516 2.71148957 40.8753237 2.5625 42.3125 C2.48128906 43.11300781 2.40007812 43.91351563 2.31640625 44.73828125 C2 47 2 47 1 50 C-2.85145043 51.92572521 -7.80043252 51.04883218 -12 51 C-12 45.39 -12 39.78 -12 34 C-11.67 34 -11.34 34 -11 34 C-11 38.95 -11 43.9 -11 49 C-7.37 49 -3.74 49 0 49 C0 32.83 0 16.66 0 0 Z " fill="#6B5540" transform="translate(71,34)"/>
<path d="M0 0 C0.33 0.99 0.66 1.98 1 3 C0.01 3.495 0.01 3.495 -1 4 C-1.02505615 4.6612085 -1.0501123 5.32241699 -1.07592773 6.00366211 C-1.19153102 8.98182305 -1.31441754 11.9596392 -1.4375 14.9375 C-1.47681641 15.97841797 -1.51613281 17.01933594 -1.55664062 18.09179688 C-1.59853516 19.08115234 -1.64042969 20.07050781 -1.68359375 21.08984375 C-1.72025146 22.00628662 -1.75690918 22.92272949 -1.79467773 23.86694336 C-2 26 -2 26 -3 27 C-4.83115883 27.09851171 -6.66619933 27.12972629 -8.5 27.125 C-9.5003125 27.12757812 -10.500625 27.13015625 -11.53125 27.1328125 C-14 27 -14 27 -15 26 C-15.08713831 24.29227642 -15.10700007 22.58101351 -15.09765625 20.87109375 C-15.09282227 19.31938477 -15.09282227 19.31938477 -15.08789062 17.73632812 C-15.07951172 16.64771484 -15.07113281 15.55910156 -15.0625 14.4375 C-15.05798828 13.34501953 -15.05347656 12.25253906 -15.04882812 11.12695312 C-15.03699826 8.41791505 -15.02051543 5.70898401 -15 3 C-16.32 3 -17.64 3 -19 3 C-18.67 2.34 -18.34 1.68 -18 1 C-15.525 1.99 -15.525 1.99 -13 3 C-13 10.26 -13 17.52 -13 25 C-9.7 25 -6.4 25 -3 25 C-3 17.74 -3 10.48 -3 3 C-2.01 2.67 -1.02 2.34 0 2 C0 1.34 0 0.68 0 0 Z " fill="#84684E" transform="translate(199,58)"/>
<path d="M0 0 C1.51400391 0.01740234 1.51400391 0.01740234 3.05859375 0.03515625 C4.07050781 0.04417969 5.08242188 0.05320312 6.125 0.0625 C7.29869141 0.07990234 7.29869141 0.07990234 8.49609375 0.09765625 C8.49609375 2.73765625 8.49609375 5.37765625 8.49609375 8.09765625 C7.83609375 7.10765625 7.17609375 6.11765625 6.49609375 5.09765625 C3.51705412 3.94447962 2.63050244 4.05285335 -0.50390625 5.09765625 C-1.73360503 8.60956434 -1.73360503 8.60956434 -2.50390625 12.09765625 C-7.12390625 12.09765625 -11.74390625 12.09765625 -16.50390625 12.09765625 C-16.50390625 11.76765625 -16.50390625 11.43765625 -16.50390625 11.09765625 C-12.21390625 11.09765625 -7.92390625 11.09765625 -3.50390625 11.09765625 C-3.50390625 10.43765625 -3.50390625 9.77765625 -3.50390625 9.09765625 C-4.16390625 8.76765625 -4.82390625 8.43765625 -5.50390625 8.09765625 C-3.33088446 0.12990969 -3.33088446 0.12990969 0 0 Z " fill="#856A4F" transform="translate(276.50390625,73.90234375)"/>
<path d="M0 0 C5.28 0 10.56 0 16 0 C16.16824079 6.13792744 16.32873188 12.27599148 16.48217773 18.41430664 C16.53540756 20.50062453 16.59072079 22.58689038 16.64819336 24.6730957 C16.73063762 27.67908511 16.80548294 30.68518459 16.87890625 33.69140625 C16.90594131 34.61772354 16.93297638 35.54404083 16.96083069 36.49842834 C17.07434999 41.47151806 16.87097161 46.099685 16 51 C15.67 51 15.34 51 15 51 C15 34.5 15 18 15 1 C8.565 1.495 8.565 1.495 2 2 C2.33 3.32 2.66 4.64 3 6 C2.34 6.66 1.68 7.32 1 8 C0.34 7.34 -0.32 6.68 -1 6 C-0.67 4.02 -0.34 2.04 0 0 Z " fill="#4D4337" transform="translate(302,34)"/>
<path d="M0 0 C-0.99 1.485 -0.99 1.485 -2 3 C-5.625 3.6875 -5.625 3.6875 -9 4 C-9.11320856 9.08303686 -9.11320856 9.08303686 -8 14 C-8.33 14.66 -8.66 15.32 -9 16 C-9.99 15.67 -10.98 15.34 -12 15 C-13.72515631 11.54968739 -13.49677924 7.77283696 -13 4 C-9.29728847 -1.10718832 -5.8784306 -1.17568612 0 0 Z " fill="#7D6651" transform="translate(254,69)"/>
<path d="M0 0 C0.99 0.33 1.98 0.66 3 1 C3 2.98 3 4.96 3 7 C6.63 7 10.26 7 14 7 C14 5.02 14 3.04 14 1 C14.66 1 15.32 1 16 1 C15.67 3.31 15.34 5.62 15 8 C12.35559361 8.8814688 10.71939248 9.16174818 8 9.1875 C7.319375 9.20167969 6.63875 9.21585938 5.9375 9.23046875 C4 9 4 9 1 7 C0.67 7.33 0.34 7.66 0 8 C-1.9609375 8.203125 -1.9609375 8.203125 -4.375 8.25 C-5.16648437 8.27578125 -5.95796875 8.3015625 -6.7734375 8.328125 C-9 8 -9 8 -12 5 C-8.37 5.33 -4.74 5.66 -1 6 C-0.67 4.02 -0.34 2.04 0 0 Z " fill="#967351" transform="translate(124,76)"/>
<path d="M0 0 C0.99 0.33 1.98 0.66 3 1 C2.67 4.63 2.34 8.26 2 12 C5.63 12.33 9.26 12.66 13 13 C13 13.66 13 14.32 13 15 C7.72 15 2.44 15 -3 15 C-2.01 10.05 -1.02 5.1 0 0 Z " fill="#A8805B" transform="translate(260,70)"/>
<path d="M0 0 C0.99773437 0.02320313 1.99546875 0.04640625 3.0234375 0.0703125 C4.52777344 0.09738281 4.52777344 0.09738281 6.0625 0.125 C6.83335937 0.14820313 7.60421875 0.17140625 8.3984375 0.1953125 C9.24519817 3.92733175 9.35773387 6.46471551 8.3984375 10.1953125 C8.0684375 10.1953125 7.7384375 10.1953125 7.3984375 10.1953125 C7.3984375 7.5553125 7.3984375 4.9153125 7.3984375 2.1953125 C4.0984375 2.5253125 0.7984375 2.8553125 -2.6015625 3.1953125 C-2.9315625 6.1653125 -3.2615625 9.1353125 -3.6015625 12.1953125 C-0.3015625 12.5253125 2.9984375 12.8553125 6.3984375 13.1953125 C6.3984375 13.5253125 6.3984375 13.8553125 6.3984375 14.1953125 C2.7684375 14.1953125 -0.8615625 14.1953125 -4.6015625 14.1953125 C-5.54146126 9.4958187 -5.55660418 6.79687694 -4.6015625 2.1953125 C-2.6015625 0.1953125 -2.6015625 0.1953125 0 0 Z " fill="#624F3E" transform="translate(171.6015625,32.8046875)"/>
<path d="M0 0 C0.33 0 0.66 0 1 0 C1 3.63 1 7.26 1 11 C0.01 11.495 0.01 11.495 -1 12 C-0.67 12.33 -0.34 12.66 0 13 C-0.05078125 14.9609375 -0.05078125 14.9609375 -0.3125 17.375 C-0.43044922 18.56222656 -0.43044922 18.56222656 -0.55078125 19.7734375 C-1 22 -1 22 -3 25 C-2.67 21.7 -2.34 18.4 -2 15 C-3.32 14.67 -4.64 14.34 -6 14 C-5.01 14 -4.02 14 -3 14 C-3 13.01 -3 12.02 -3 11 C-9.435 11.495 -9.435 11.495 -16 12 C-16 11.34 -16 10.68 -16 10 C-10.72 10 -5.44 10 0 10 C0 6.7 0 3.4 0 0 Z " fill="#6F5B48" transform="translate(104,59)"/>
<path d="M0 0 C3.64581687 -0.02887512 7.29160463 -0.04675585 10.9375 -0.0625 C12.49887695 -0.07506836 12.49887695 -0.07506836 14.09179688 -0.08789062 C15.57583008 -0.09272461 15.57583008 -0.09272461 17.08984375 -0.09765625 C18.46450806 -0.10551147 18.46450806 -0.10551147 19.86694336 -0.11352539 C22 0 22 0 23 1 C23.04080783 2.99958364 23.04254356 5.00045254 23 7 C21.5 5.625 21.5 5.625 20 4 C20 3.34 20 2.68 20 2 C13.4 2 6.8 2 0 2 C0 1.34 0 0.68 0 0 Z " fill="#D19D6C" transform="translate(267,35)"/>
<path d="M0 0 C1.76462683 3.08809695 2 4.23312136 2 8 C2.66 8 3.32 8 4 8 C4.33 7.34 4.66 6.68 5 6 C5.33 6.99 5.66 7.98 6 9 C0.04296875 10.7578125 0.04296875 10.7578125 -2 11 C-2.99 10.34 -3.98 9.68 -5 9 C-4.67 7.35 -4.34 5.7 -4 4 C-2.68 3.67 -1.36 3.34 0 3 C0 2.01 0 1.02 0 0 Z " fill="#65513F" transform="translate(279,57)"/>
<path d="M0 0 C1.65322266 0.01740234 1.65322266 0.01740234 3.33984375 0.03515625 C4.99693359 0.04869141 4.99693359 0.04869141 6.6875 0.0625 C7.54214844 0.07410156 8.39679688 0.08570313 9.27734375 0.09765625 C8.94734375 0.75765625 8.61734375 1.41765625 8.27734375 2.09765625 C4.97734375 2.09765625 1.67734375 2.09765625 -1.72265625 2.09765625 C-1.72265625 5.39765625 -1.72265625 8.69765625 -1.72265625 12.09765625 C-3.04265625 12.42765625 -4.36265625 12.75765625 -5.72265625 13.09765625 C-5.41506447 11.11772084 -5.10144945 9.13872026 -4.78515625 7.16015625 C-4.61113281 6.05800781 -4.43710937 4.95585938 -4.2578125 3.8203125 C-3.53180415 0.12667877 -3.53180415 0.12667877 0 0 Z " fill="#B68D64" transform="translate(61.72265625,33.90234375)"/>
<path d="M0 0 C0.33 0 0.66 0 1 0 C1 2.64 1 5.28 1 8 C1.66 8 2.32 8 3 8 C2.88590407 9.45922693 2.75834456 10.91740598 2.625 12.375 C2.55539062 13.18710937 2.48578125 13.99921875 2.4140625 14.8359375 C2 17 2 17 0 19 C0 16.36 0 13.72 0 11 C-0.99 11 -1.98 11 -3 11 C-3 10.34 -3 9.68 -3 9 C-2.34 9 -1.68 9 -1 9 C-0.67 6.03 -0.34 3.06 0 0 Z " fill="#AC8863" transform="translate(266,39)"/>
<path d="M0 0 C2.03448779 0.41740567 4.05401678 0.90895178 6.0625 1.4375 C7.71958984 1.86869141 7.71958984 1.86869141 9.41015625 2.30859375 C10.26480469 2.53675781 11.11945313 2.76492187 12 3 C12 3.33 12 3.66 12 4 C8.37 4 4.74 4 1 4 C0.67 6.97 0.34 9.94 0 13 C-0.99 12.67 -1.98 12.34 -3 12 C-2.69230293 10.18667846 -2.37870936 8.37435655 -2.0625 6.5625 C-1.80146484 5.04849609 -1.80146484 5.04849609 -1.53515625 3.50390625 C-1 1 -1 1 0 0 Z " fill="#8C6B4C" transform="translate(205,82)"/>
<path d="M0 0 C0.99 0 1.98 0 3 0 C3 2.97 3 5.94 3 9 C2.01 9 1.02 9 0 9 C0.33 8.34 0.66 7.68 1 7 C-1.97 7 -4.94 7 -8 7 C-8 6.34 -8 5.68 -8 5 C-5.36 5 -2.72 5 0 5 C0 3.35 0 1.7 0 0 Z " fill="#967351" transform="translate(217,75)"/>
<path d="M0 0 C3.3 0 6.6 0 10 0 C10 0.33 10 0.66 10 1 C7.69 1.33 5.38 1.66 3 2 C1.73417781 5.86723631 1.8881235 9.73151262 1.9375 13.75 C1.94201172 14.44738281 1.94652344 15.14476562 1.95117188 15.86328125 C1.9628998 17.57555803 1.98083347 19.28779033 2 21 C1.34 21 0.68 21 0 21 C0 14 0 7 0 0 Z " fill="#8E6E4F" transform="translate(35,48)"/>
<path d="M0 0 C3.63 0 7.26 0 11 0 C10.67 0.99 10.34 1.98 10 3 C4.06 3.495 4.06 3.495 -2 4 C-1.34 3.67 -0.68 3.34 0 3 C0 2.01 0 1.02 0 0 Z " fill="#FEA657" transform="translate(85,65)"/>
<path d="M0 0 C0.33 0 0.66 0 1 0 C1 2.64 1 5.28 1 8 C3.64 8 6.28 8 9 8 C9 6.68 9 5.36 9 4 C9.66 4 10.32 4 11 4 C11 5.98 11 7.96 11 10 C9.54176788 10.0270043 8.08339325 10.04639787 6.625 10.0625 C5.81289062 10.07410156 5.00078125 10.08570313 4.1640625 10.09765625 C2 10 2 10 0 9 C0 6.03 0 3.06 0 0 Z " fill="#E0A36B" transform="translate(168,36)"/>
<path d="M0 0 C0.33 0 0.66 0 1 0 C0.67 3.3 0.34 6.6 0 10 C0.66 10 1.32 10 2 10 C1.67 11.32 1.34 12.64 1 14 C1 13.34 1 12.68 1 12 C0.01 12 -0.98 12 -2 12 C-2 8.7 -2 5.4 -2 2 C-1.34 2 -0.68 2 0 2 C0 1.34 0 0.68 0 0 Z " fill="#CA996C" transform="translate(302,38)"/>
<path d="M0 0 C4.13347071 0.47239665 7.35761877 2.05174957 11 4 C10.67 5.98 10.34 7.96 10 10 C9.67 10 9.34 10 9 10 C9 8.35 9 6.7 9 5 C6.03 4.505 6.03 4.505 3 4 C3 3.34 3 2.68 3 2 C1.68 1.67 0.36 1.34 -1 1 C-0.67 0.67 -0.34 0.34 0 0 Z " fill="#8F7053" transform="translate(45,34)"/>
<path d="M0 0 C4.95 0 9.9 0 15 0 C15 0.33 15 0.66 15 1 C8.565 1.495 8.565 1.495 2 2 C2.33 3.32 2.66 4.64 3 6 C2.34 6.66 1.68 7.32 1 8 C0.34 7.34 -0.32 6.68 -1 6 C-0.67 4.02 -0.34 2.04 0 0 Z " fill="#685745" transform="translate(302,34)"/>
<path d="M0 0 C1.5 1.1875 1.5 1.1875 3 3 C3.25 5.625 3.25 5.625 3 8 C2 9 2 9 -1.16015625 9.09765625 C-3.09181641 9.08025391 -3.09181641 9.08025391 -5.0625 9.0625 C-6.35285156 9.05347656 -7.64320313 9.04445313 -8.97265625 9.03515625 C-9.97167969 9.02355469 -10.97070312 9.01195313 -12 9 C-12 8.67 -12 8.34 -12 8 C-7.71 8 -3.42 8 1 8 C1 7.34 1 6.68 1 6 C0.34 5.67 -0.32 5.34 -1 5 C-0.67 3.35 -0.34 1.7 0 0 Z " fill="#2A241B" transform="translate(272,77)"/>
<path d="M0 0 C2.48775874 2.48775874 2.61866553 4.07275574 3.25 7.5 C3.44078125 8.4796875 3.6315625 9.459375 3.828125 10.46875 C3.88484375 11.3040625 3.9415625 12.139375 4 13 C3.34 13.66 2.68 14.32 2 15 C0.2520497 9.75614911 -0.19392201 5.52677733 0 0 Z " fill="#B18D68" transform="translate(296,68)"/>
<path d="M0 0 C0.66 1.65 1.32 3.3 2 5 C0.02 5.66 -1.96 6.32 -4 7 C-4.6875 5.1875 -4.6875 5.1875 -5 3 C-3.38441968 0.84589291 -2.74502455 0 0 0 Z " fill="#F9A959" transform="translate(83,71)"/>
<path d="M0 0 C0.99 0 1.98 0 3 0 C3.22211116 1.93596892 3.42722992 3.87389328 3.625 5.8125 C3.74101562 6.89144531 3.85703125 7.97039063 3.9765625 9.08203125 C4 12 4 12 2 15 C-0.12969485 11.80545772 -0.2390304 11.50853075 0.3125 8 C0.41175781 7.319375 0.51101563 6.63875 0.61328125 5.9375 C1 4 1 4 2 1 C1.34 0.67 0.68 0.34 0 0 Z " fill="#5A4837" transform="translate(263,50)"/>
<path d="M0 0 C3.96 0 7.92 0 12 0 C11.67 0.66 11.34 1.32 11 2 C7.7 2 4.4 2 1 2 C1 2.99 1 3.98 1 5 C0.34 5 -0.32 5 -1 5 C-0.67 3.35 -0.34 1.7 0 0 Z " fill="#8A6849" transform="translate(204,48)"/>
<path d="M0 0 C1.78409802 3.06246747 2.22880021 5.22079273 2.125 8.75 C2.10695313 9.54921875 2.08890625 10.3484375 2.0703125 11.171875 C2.03550781 12.07679687 2.03550781 12.07679687 2 13 C1.34 13 0.68 13 0 13 C-0.38885039 11.21128822 -0.76069196 9.41887126 -1.125 7.625 C-1.33382813 6.62726562 -1.54265625 5.62953125 -1.7578125 4.6015625 C-1.83773438 3.74304687 -1.91765625 2.88453125 -2 2 C-1.34 1.34 -0.68 0.68 0 0 Z " fill="#957458" transform="translate(290,38)"/>
<path d="M0 0 C0.90492188 0.02320313 1.80984375 0.04640625 2.7421875 0.0703125 C4.10730469 0.09738281 4.10730469 0.09738281 5.5 0.125 C6.19867188 0.14820313 6.89734375 0.17140625 7.6171875 0.1953125 C6.9571875 2.1753125 6.2971875 4.1553125 5.6171875 6.1953125 C4.6271875 5.8653125 3.6371875 5.5353125 2.6171875 5.1953125 C2.9471875 4.2053125 3.2771875 3.2153125 3.6171875 2.1953125 C0.9771875 2.1953125 -1.6628125 2.1953125 -4.3828125 2.1953125 C-2.3828125 0.1953125 -2.3828125 0.1953125 0 0 Z " fill="#F6A963" transform="translate(192.3828125,34.8046875)"/>
<path d="M0 0 C1.33333333 0 2.66666667 0 4 0 C4 3.96 4 7.92 4 12 C2 11 2 11 0.875 7.6875 C0 4 0 4 0 0 Z M2 5 C3 8 3 8 3 8 Z " fill="#513F2D" transform="translate(299,74)"/>
<path d="M0 0 C0.66 0.33 1.32 0.66 2 1 C1.67 1.66 1.34 2.32 1 3 C1.66 3 2.32 3 3 3 C2.42655063 5.86724686 2.1385485 6.8614515 0 9 C-0.66 9 -1.32 9 -2 9 C-1.125 1.125 -1.125 1.125 0 0 Z " fill="#FBA85F" transform="translate(111,54)"/>
<path d="M0 0 C0.33 0 0.66 0 1 0 C1.95498418 4.7749209 2.24243031 9.15139376 2 14 C1.34 14.66 0.68 15.32 0 16 C-0.71033431 10.47032059 -1.30267176 5.50016964 0 0 Z " fill="#7F674E" transform="translate(292,45)"/>
<path d="M0 0 C0.33 0 0.66 0 1 0 C1 3.3 1 6.6 1 10 C4.3 10.33 7.6 10.66 11 11 C11 11.33 11 11.66 11 12 C7.37 12 3.74 12 0 12 C-0.93391785 7.33041073 -0.80917656 4.58533383 0 0 Z " fill="#483B2E" transform="translate(167,35)"/>
<path d="M0 0 C3.07692308 6.4 3.07692308 6.4 2.6875 9.4375 C2.460625 9.953125 2.23375 10.46875 2 11 C2 10.01 2 9.02 2 8 C1.34 7.67 0.68 7.34 0 7 C0 6.01 0 5.02 0 4 C-0.33 4.66 -0.66 5.32 -1 6 C-1.66 5.67 -2.32 5.34 -3 5 C-2.67 4.34 -2.34 3.68 -2 3 C-2.66 3 -3.32 3 -4 3 C-4 2.34 -4 1.68 -4 1 C-2 0 -2 0 0 0 Z " fill="#F5A962" transform="translate(51,69)"/>
<path d="M0 0 C0.66 2.31 1.32 4.62 2 7 C1.34 6.67 0.68 6.34 0 6 C0 5.34 0 4.68 0 4 C-1.97536745 4.34786708 -1.97536745 4.34786708 -4 5 C-4.33 5.66 -4.66 6.32 -5 7 C-5.66 6.34 -6.32 5.68 -7 5 C-2.25 0 -2.25 0 0 0 Z " fill="#6F5842" transform="translate(51,65)"/>
<path d="M0 0 C0.66 0.33 1.32 0.66 2 1 C2 2.32 2 3.64 2 5 C-0.31 5 -2.62 5 -5 5 C-5 4.01 -5 3.02 -5 2 C-3.35 2 -1.7 2 0 2 C0 1.34 0 0.68 0 0 Z " fill="#976F4B" transform="translate(299,81)"/>
<path d="M0 0 C1.45599609 0.00580078 1.45599609 0.00580078 2.94140625 0.01171875 C5.4375 0.3125 5.4375 0.3125 7.4375 2.3125 C6.70144531 2.30089844 5.96539062 2.28929687 5.20703125 2.27734375 C4.23121094 2.26832031 3.25539063 2.25929687 2.25 2.25 C1.28707031 2.23839844 0.32414062 2.22679687 -0.66796875 2.21484375 C-3.41826513 2.30763378 -5.88729591 2.69138315 -8.5625 3.3125 C-6.0046594 0.02632512 -4.06004133 -0.07028034 0 0 Z " fill="#937355" transform="translate(90.5625,47.6875)"/>
<path d="M0 0 C0.33 0 0.66 0 1 0 C1.33 3.63 1.66 7.26 2 11 C0.68 11.33 -0.64 11.66 -2 12 C-1.34 8.04 -0.68 4.08 0 0 Z " fill="#916E4E" transform="translate(58,35)"/>
<path d="M0 0 C4.29 0 8.58 0 13 0 C13.33 0.66 13.66 1.32 14 2 C13.01 3.485 13.01 3.485 12 5 C11.67 3.68 11.34 2.36 11 1 C5.06 1.495 5.06 1.495 -1 2 C-0.67 1.34 -0.34 0.68 0 0 Z " fill="#6F5D49" transform="translate(189,34)"/>
<path d="M0 0 C2.64 0.33 5.28 0.66 8 1 C7.01 2.485 7.01 2.485 6 4 C3.375 4.1875 3.375 4.1875 1 4 C0.67 2.68 0.34 1.36 0 0 Z " fill="#9C7C5E" transform="translate(245,83)"/>
<path d="M0 0 C2.31 0 4.62 0 7 0 C6.34 1.65 5.68 3.3 5 5 C3.0625 4.1875 3.0625 4.1875 1 3 C0.67 2.01 0.34 1.02 0 0 Z " fill="#BE8650" transform="translate(79,78)"/>
<path d="M0 0 C1.98 0 3.96 0 6 0 C4.37660195 1.70884005 2.70680947 3.37446717 1 5 C0.34 5 -0.32 5 -1 5 C-0.67 3.35 -0.34 1.7 0 0 Z " fill="#FDA855" transform="translate(87,49)"/>
<path d="M0 0 C0.66 0 1.32 0 2 0 C1.125 4.75 1.125 4.75 0 7 C-2.46800047 5.84826645 -4.04783565 4.95216435 -6 3 C-3.03 3.495 -3.03 3.495 0 4 C0 2.68 0 1.36 0 0 Z " fill="#917357" transform="translate(51,46)"/>
<path d="M0 0 C1.65 0 3.3 0 5 0 C6.27351308 2.54702616 5.80191925 3.4282945 5.0625 6.125 C4.86785156 6.84945312 4.67320312 7.57390625 4.47265625 8.3203125 C4.23869141 9.15175781 4.23869141 9.15175781 4 10 C3.67 10 3.34 10 3 10 C2.8046875 7.98177083 2.609375 5.96354167 2.4140625 3.9453125 C2.13625251 1.77331755 2.13625251 1.77331755 0 0 Z " fill="#755A42" transform="translate(159,48)"/>
<path d="M0 0 C-1.485 2.475 -1.485 2.475 -3 5 C-3.66 4.67 -4.32 4.34 -5 4 C-4.67 3.34 -4.34 2.68 -4 2 C-4.99 1.67 -5.98 1.34 -7 1 C-3.375 -1.125 -3.375 -1.125 0 0 Z " fill="#F1A962" transform="translate(47,72)"/>
<path d="M0 0 C2.63097732 0.35079698 3.70617362 0.62603916 5.375 2.75 C6.21193757 5.76297525 5.36829407 7.26341187 4 10 C3.67 10 3.34 10 3 10 C3 7.36 3 4.72 3 2 C2.01 2 1.02 2 0 2 C0 1.34 0 0.68 0 0 Z " fill="#A07E5D" transform="translate(263,48)"/>
<path d="M0 0 C-0.99 1.485 -0.99 1.485 -2 3 C-4.5 3.375 -4.5 3.375 -7 3 C-7.66 2.01 -8.32 1.02 -9 0 C-5.52176885 -1.15941038 -3.54104422 -0.70820884 0 0 Z " fill="#473A2C" transform="translate(254,69)"/>
<path d="M0 0 C-0.66 1.32 -1.32 2.64 -2 4 C-4.31 3.34 -6.62 2.68 -9 2 C-9 1.67 -9 1.34 -9 1 C-3.375 -1.125 -3.375 -1.125 0 0 Z " fill="#554839" transform="translate(256,82)"/>
<path d="M0 0 C1.485 0.99 1.485 0.99 3 2 C3.1875 5.125 3.1875 5.125 3 8 C2.34 8 1.68 8 1 8 C0.67 5.36 0.34 2.72 0 0 Z " fill="#B98D65" transform="translate(280,57)"/>
</svg>
